<?xml version="1.0" encoding="UTF-8" ?>
<!DOCTYPE svg PUBLIC "-//W3C//DTD SVG 1.1//EN" "http://www.w3.org/Graphics/SVG/1.1/DTD/svg11.dtd">
<svg width="160pt" height="160pt" viewBox="0 0 160 160" version="1.1" xmlns="http://www.w3.org/2000/svg">
<g id="#ffffffff">
<path fill="#ffffff" opacity="1.00" d=" M 76.49 51.48 C 78.51 49.28 82.27 49.68 84.06 51.99 C 100.54 68.53 117.12 84.98 133.57 101.56 C 136.41 104.09 134.75 109.31 131.04 109.87 C 128.85 110.48 126.86 109.13 125.48 107.57 C 110.36 92.33 95.05 77.27 80.00 61.96 C 65.12 77.09 49.98 91.97 35.04 107.05 C 33.66 108.43 32.18 110.11 30.02 110.00 C 27.34 110.09 24.88 107.65 25.01 104.98 C 24.83 102.83 26.63 101.37 27.94 99.96 C 44.16 83.84 60.27 67.60 76.49 51.48 Z" />
</g>
</svg>
