<?xml version="1.0" encoding="UTF-8" ?>
<!DOCTYPE svg PUBLIC "-//W3C//DTD SVG 1.1//EN" "http://www.w3.org/Graphics/SVG/1.1/DTD/svg11.dtd">
<svg width="160pt" height="160pt" viewBox="0 0 160 160" version="1.1" xmlns="http://www.w3.org/2000/svg">
<g id="#ffffffff">
<path fill="#ffffff" opacity="1.00" d=" M 91.71 0.00 L 94.52 0.00 C 113.04 0.22 129.60 16.46 129.90 35.01 C 130.00 60.02 129.92 85.03 129.94 110.05 C 130.14 125.06 122.86 139.86 111.08 149.12 C 102.79 155.82 92.29 159.60 81.65 160.00 L 78.85 160.00 C 59.75 159.74 41.57 147.46 34.13 129.88 C 31.40 123.64 29.99 116.83 30.06 110.01 C 30.06 86.64 30.04 63.28 30.06 39.91 C 29.96 37.66 31.24 35.47 33.17 34.33 C 37.28 31.46 43.58 34.98 43.33 39.98 C 43.36 63.32 43.33 86.67 43.34 110.02 C 43.31 115.48 44.57 120.92 46.94 125.84 C 53.50 139.98 69.73 148.74 85.16 146.31 C 102.13 144.18 116.18 128.80 116.62 111.68 C 116.71 86.48 116.65 61.27 116.65 36.07 C 116.66 24.08 106.02 13.43 94.05 13.35 C 84.58 12.92 75.29 18.95 71.77 27.74 C 68.99 34.12 70.33 41.22 69.96 47.96 C 70.01 65.99 70.04 84.03 69.96 102.06 C 69.55 106.53 72.18 111.10 76.43 112.67 C 82.72 115.43 90.37 109.88 90.02 103.11 C 89.97 82.08 90.01 61.05 89.99 40.02 C 89.87 36.35 93.27 33.08 96.92 33.33 C 100.38 33.37 103.44 36.54 103.33 40.00 C 103.34 61.35 103.36 82.70 103.32 104.04 C 103.18 113.77 96.19 122.85 86.90 125.63 C 79.20 128.08 70.29 126.13 64.37 120.62 C 59.42 116.21 56.53 109.62 56.65 102.98 C 56.70 80.31 56.60 57.64 56.70 34.97 C 57.15 16.56 73.34 0.50 91.71 0.00 Z" />
</g>
</svg>
