<?xml version="1.0" encoding="UTF-8" ?>
<!DOCTYPE svg PUBLIC "-//W3C//DTD SVG 1.1//EN" "http://www.w3.org/Graphics/SVG/1.1/DTD/svg11.dtd">
<svg width="160pt" height="160pt" viewBox="0 0 160 160" version="1.1" xmlns="http://www.w3.org/2000/svg">
<g id="#ffffffff">
<path fill="#ffffff" opacity="1.00" d=" M 4.80 1.76 C 9.00 -1.08 15.00 -0.02 18.29 3.75 C 38.84 24.37 59.53 44.86 80.00 65.56 C 100.48 44.87 121.16 24.38 141.71 3.75 C 144.04 1.22 147.50 -0.28 150.96 0.23 C 155.89 0.72 159.88 5.21 160.00 10.12 L 160.00 10.87 C 159.91 14.04 158.21 16.86 155.89 18.93 C 135.40 39.26 115.18 59.87 94.56 80.07 C 115.19 100.57 135.69 121.20 156.28 141.74 C 158.39 143.66 159.82 146.30 160.00 149.17 L 160.00 150.73 C 159.50 155.72 155.07 160.23 149.91 159.98 C 146.75 160.25 143.72 158.75 141.63 156.45 C 121.11 135.85 100.48 115.37 80.00 94.73 C 59.20 115.66 38.31 136.50 17.42 157.34 C 11.64 163.14 0.49 159.02 0.00 150.77 L 0.00 149.07 C 0.21 146.21 1.65 143.62 3.74 141.72 C 24.33 121.18 44.84 100.57 65.45 80.06 C 44.82 59.88 24.61 39.26 4.12 18.93 C 1.79 16.87 0.09 14.05 0.00 10.88 L 0.00 10.12 C 0.14 6.77 1.93 3.53 4.80 1.76 Z" />
</g>
</svg>
