<?xml version="1.0" encoding="UTF-8" ?>
<!DOCTYPE svg PUBLIC "-//W3C//DTD SVG 1.1//EN" "http://www.w3.org/Graphics/SVG/1.1/DTD/svg11.dtd">
<svg width="160pt" height="160pt" viewBox="0 0 160 160" version="1.1" xmlns="http://www.w3.org/2000/svg">
<g id="#ffffffff">
<path fill="#ffffff" opacity="1.00" d=" M 71.53 8.02 C 71.80 3.79 75.75 0.06 80.03 0.28 C 84.61 0.19 88.60 4.48 88.34 9.01 C 88.25 35.66 88.50 62.31 88.21 88.95 C 89.12 88.68 89.81 88.13 90.29 87.30 C 98.94 78.61 107.61 69.93 116.29 61.28 C 119.12 58.57 123.96 58.33 126.99 60.83 C 130.86 63.54 131.54 69.67 128.18 73.05 C 114.07 87.34 99.73 101.42 85.63 115.73 C 82.59 118.71 77.31 118.66 74.21 115.79 C 60.66 101.98 46.87 88.40 33.22 74.68 C 31.30 72.96 29.58 70.68 29.52 67.99 C 29.16 63.75 32.62 59.59 36.86 59.16 C 39.53 58.78 42.28 59.83 44.09 61.82 C 53.21 70.97 62.42 80.07 71.47 89.27 C 71.57 62.20 71.46 35.10 71.53 8.02 Z" />
<path fill="#ffffff" opacity="1.00" d=" M 4.31 118.94 C 3.68 114.01 8.00 109.15 13.02 109.49 C 17.47 109.54 21.18 113.61 21.16 118.00 C 21.15 123.68 21.14 129.36 21.15 135.05 C 21.11 139.60 25.47 143.39 29.93 143.17 C 63.30 143.16 96.67 143.16 130.04 143.17 C 134.53 143.35 138.74 139.46 138.71 134.93 C 138.72 129.26 138.71 123.60 138.71 117.93 C 138.62 113.49 142.57 109.38 147.07 109.49 C 151.97 109.31 156.15 114.08 155.54 118.91 C 155.00 128.13 157.26 138.11 152.54 146.57 C 148.47 154.54 139.86 159.60 131.00 160.00 L 29.26 160.00 C 20.00 159.77 10.93 154.35 6.94 145.90 C 2.68 137.55 4.86 127.92 4.31 118.94 Z" />
</g>
</svg>
