<?xml version="1.0" encoding="UTF-8" ?>
<!DOCTYPE svg PUBLIC "-//W3C//DTD SVG 1.1//EN" "http://www.w3.org/Graphics/SVG/1.1/DTD/svg11.dtd">
<svg width="160pt" height="160pt" viewBox="0 0 160 160" version="1.1" xmlns="http://www.w3.org/2000/svg">
<g id="#ffffffff">
<path fill="#ffffff" opacity="1.00" d=" M 79.48 0.00 L 80.33 0.00 C 98.33 0.05 116.23 6.38 130.19 17.77 C 147.98 31.95 159.04 53.98 160.00 76.70 L 160.00 82.62 C 159.34 101.75 151.63 120.54 138.50 134.49 C 123.75 150.49 102.26 159.96 80.49 160.00 L 79.62 160.00 C 61.64 159.93 43.76 153.61 29.82 142.24 C 12.03 128.06 0.96 106.02 0.00 83.30 L 0.00 77.43 C 0.70 54.44 11.86 32.07 29.85 17.74 C 43.75 6.41 61.56 0.10 79.48 0.00 M 49.47 54.73 C 44.22 57.59 43.79 65.88 48.85 69.15 C 53.85 73.19 62.16 69.33 62.49 62.96 C 63.43 56.27 55.14 50.94 49.47 54.73 M 103.35 54.55 C 97.38 57.33 97.27 66.76 103.17 69.68 C 108.60 73.08 116.51 68.39 115.98 61.97 C 116.19 55.84 108.62 51.34 103.35 54.55 M 38.08 101.69 C 48.50 117.02 67.47 126.59 86.06 123.91 C 100.55 122.21 113.75 113.67 121.91 101.68 C 119.49 100.05 117.04 98.46 114.59 96.87 C 105.83 110.39 88.79 118.05 72.88 115.03 C 61.72 113.10 51.69 106.24 45.42 96.86 C 42.97 98.46 40.51 100.05 38.08 101.69 Z" />
</g>
</svg>
