<?xml version="1.0" encoding="UTF-8" ?>
<!DOCTYPE svg PUBLIC "-//W3C//DTD SVG 1.1//EN" "http://www.w3.org/Graphics/SVG/1.1/DTD/svg11.dtd">
<svg width="160pt" height="160pt" viewBox="0 0 160 160" version="1.1" xmlns="http://www.w3.org/2000/svg">
<g id="#ffffffff">
<path fill="#ffffff" opacity="1.00" d=" M 35.48 0.00 L 94.67 0.00 C 98.88 0.30 102.92 2.15 105.90 5.13 C 115.79 14.57 125.81 23.89 135.67 33.36 C 139.05 36.60 141.04 41.26 140.90 45.96 C 140.89 78.35 140.91 110.75 140.89 143.14 C 140.97 151.73 133.67 159.35 125.16 160.00 L 35.62 160.00 C 26.79 159.83 18.98 151.96 19.11 143.09 C 19.10 101.03 19.10 58.96 19.11 16.90 C 18.99 8.09 26.70 0.24 35.48 0.00 M 28.44 17.11 C 28.44 59.06 28.44 101.02 28.44 142.97 C 28.40 146.99 32.02 150.64 36.04 150.63 C 65.36 150.61 94.68 150.62 124.00 150.63 C 128.01 150.61 131.60 146.96 131.56 142.96 C 131.53 110.92 131.61 78.87 131.53 46.83 C 122.01 46.87 112.50 46.83 102.99 46.85 C 97.27 46.97 92.11 41.80 92.21 36.09 C 92.20 27.18 92.22 18.27 92.20 9.36 C 73.49 9.41 54.78 9.38 36.07 9.37 C 32.01 9.34 28.35 13.05 28.44 17.11 M 101.57 13.87 C 101.72 21.56 101.22 29.35 101.83 36.98 L 102.72 37.47 C 110.57 37.63 118.45 37.29 126.30 37.66 C 126.03 36.36 124.71 35.98 123.91 35.10 C 116.49 28.01 108.92 21.00 101.57 13.87 Z" />
<path fill="#ffffff" opacity="1.00" d=" M 43.97 71.86 C 38.83 71.21 38.81 63.08 44.02 62.48 C 67.32 62.50 90.62 62.52 113.92 62.47 C 116.31 62.65 117.83 64.80 118.28 66.98 C 118.08 69.30 116.45 71.58 114.03 71.86 C 90.68 71.84 67.32 71.84 43.97 71.86 Z" />
<path fill="#ffffff" opacity="1.00" d=" M 43.99 96.86 C 38.83 96.23 38.81 88.09 44.01 87.49 C 67.32 87.50 90.64 87.52 113.95 87.47 C 116.32 87.68 117.84 89.80 118.28 91.98 C 118.07 94.30 116.45 96.58 114.02 96.86 C 90.68 96.83 67.33 96.84 43.99 96.86 Z" />
<path fill="#ffffff" opacity="1.00" d=" M 43.27 121.70 C 38.62 120.36 39.22 112.97 44.08 112.48 C 52.04 112.50 60.01 112.52 67.97 112.48 C 70.34 112.72 71.88 114.85 72.27 117.06 C 72.00 119.34 70.40 121.57 68.01 121.87 C 59.77 121.72 51.48 122.06 43.27 121.70 Z" />
</g>
</svg>
