<?xml version="1.0" encoding="UTF-8" ?>
<!DOCTYPE svg PUBLIC "-//W3C//DTD SVG 1.1//EN" "http://www.w3.org/Graphics/SVG/1.1/DTD/svg11.dtd">
<svg width="160pt" height="160pt" viewBox="0 0 160 160" version="1.1" xmlns="http://www.w3.org/2000/svg">
<g id="#f3f4f6ff">
<path fill="#f3f4f6" opacity="1.00" d=" M 77.29 0.00 L 81.62 0.00 C 97.28 0.35 112.83 5.33 125.65 14.36 C 138.26 23.13 148.28 35.59 154.07 49.82 C 162.03 69.14 161.93 91.64 153.78 110.89 C 147.94 124.83 138.04 137.02 125.64 145.65 C 113.11 154.47 97.99 159.38 82.71 160.00 L 78.35 160.00 C 65.12 159.68 51.96 156.12 40.47 149.52 C 24.81 140.61 12.30 126.29 5.67 109.53 C -0.19 94.99 -1.43 78.70 1.75 63.38 C 5.76 44.16 17.24 26.67 33.16 15.20 C 45.92 5.86 61.52 0.63 77.29 0.00 M 67.50 15.75 C 47.69 19.53 30.05 33.10 21.27 51.25 C 14.52 64.64 12.83 80.44 16.29 95.01 C 20.62 113.52 33.47 129.82 50.48 138.34 C 64.02 145.39 80.12 147.24 94.95 143.72 C 112.07 139.73 127.32 128.47 136.25 113.34 C 144.06 100.40 147.08 84.68 144.64 69.76 C 141.53 49.35 127.99 30.90 109.54 21.67 C 96.74 15.00 81.65 12.98 67.50 15.75 Z" />
<path fill="#f3f4f6" opacity="1.00" d=" M 76.57 34.60 C 83.35 31.57 91.42 38.66 89.45 45.77 C 88.14 52.84 78.32 55.90 73.34 50.62 C 68.13 46.14 70.07 36.74 76.57 34.60 Z" />
<path fill="#f3f4f6" opacity="1.00" d=" M 78.15 68.16 C 82.40 66.74 87.26 70.46 87.26 74.89 C 87.33 89.28 87.26 103.68 87.30 118.08 C 87.59 121.45 85.29 124.94 81.96 125.74 C 77.70 127.24 72.73 123.53 72.74 119.06 C 72.67 104.70 72.74 90.34 72.70 75.98 C 72.37 72.53 74.72 68.94 78.15 68.16 Z" />
</g>
</svg>
