<?xml version="1.0" encoding="UTF-8" ?>
<!DOCTYPE svg PUBLIC "-//W3C//DTD SVG 1.1//EN" "http://www.w3.org/Graphics/SVG/1.1/DTD/svg11.dtd">
<svg width="160pt" height="160pt" viewBox="0 0 160 160" version="1.1" xmlns="http://www.w3.org/2000/svg">
<g id="#ffffffff">
<path fill="#ffffff" opacity="1.00" d=" M 34.41 0.00 L 60.12 0.00 C 65.16 0.07 75.22 0.20 80.26 0.26 C 84.39 0.40 87.43 5.06 86.09 8.89 C 85.18 11.87 82.10 13.79 79.03 13.55 C 59.65 13.55 40.28 13.56 20.91 13.54 C 17.67 13.22 14.30 15.29 13.50 18.52 C 13.14 20.66 13.32 22.84 13.30 24.99 C 13.33 63.32 13.27 101.64 13.33 139.96 C 13.26 143.42 16.44 146.48 19.88 146.42 C 39.89 146.53 59.91 146.37 79.92 146.49 C 85.05 146.34 88.43 153.07 85.06 157.03 C 80.10 162.79 71.15 158.01 64.74 160.00 L 39.62 160.00 C 33.91 159.89 22.49 159.67 16.78 159.55 C 7.54 158.08 0.04 149.62 0.00 140.21 L 0.00 20.31 C -0.11 12.52 4.79 5.01 11.94 1.95 C 19.00 -1.25 26.98 1.15 34.41 0.00 Z" />
<path fill="#ffffff" opacity="1.00" d=" M 106.35 40.97 C 105.67 36.79 109.85 32.74 114.02 33.56 C 115.85 33.82 117.27 35.09 118.55 36.33 C 130.63 48.30 142.77 60.21 154.89 72.14 C 156.91 74.16 159.33 76.08 160.00 79.01 L 160.00 80.29 C 159.84 82.28 158.82 84.04 157.38 85.38 C 144.64 97.99 131.81 110.51 119.10 123.14 C 117.64 124.55 116.11 126.15 114.00 126.45 C 109.84 127.25 105.68 123.21 106.35 119.03 C 106.65 116.33 108.91 114.55 110.69 112.74 C 119.53 104.03 128.43 95.39 137.16 86.57 C 111.43 86.70 85.70 86.63 59.96 86.61 C 56.34 86.80 53.02 83.55 53.15 79.92 C 53.11 76.35 56.40 73.20 59.97 73.39 C 85.69 73.38 111.41 73.29 137.13 73.44 C 128.63 64.76 119.88 56.34 111.24 47.80 C 109.32 45.80 106.71 43.94 106.35 40.97 Z" />
</g>
</svg>
