<?xml version="1.0" encoding="UTF-8" ?>
<!DOCTYPE svg PUBLIC "-//W3C//DTD SVG 1.1//EN" "http://www.w3.org/Graphics/SVG/1.1/DTD/svg11.dtd">
<svg width="452pt" height="175pt" viewBox="0 0 452 175" version="1.1" xmlns="http://www.w3.org/2000/svg">
<g id="#ffffffff">
<path fill="#ffffff" opacity="1.00" d=" M 8.94 0.00 L 165.43 0.00 C 170.53 0.22 175.09 4.70 174.97 9.88 C 175.02 61.62 175.02 113.37 174.97 165.11 C 175.09 170.07 170.95 174.37 166.12 175.00 L 135.00 175.00 C 134.99 149.31 135.03 123.62 134.98 97.93 C 135.34 92.47 130.56 87.40 125.08 87.52 C 119.53 87.28 114.65 92.42 115.00 97.92 C 114.99 123.62 115.00 149.31 115.00 175.00 L 60.00 175.00 C 59.99 149.31 60.03 123.62 59.98 97.93 C 60.34 92.46 55.54 87.37 50.04 87.52 C 44.52 87.31 39.65 92.43 40.00 97.92 C 39.99 123.61 40.00 149.31 40.00 175.00 L 9.13 175.00 C 4.31 174.56 0.26 170.43 0.00 165.58 L 0.00 9.14 C 0.41 4.44 4.32 0.61 8.94 0.00 Z" />
<path fill="#ffffff" opacity="1.00" d=" M 225.37 0.00 L 227.67 0.00 C 246.43 0.23 265.04 6.67 279.86 18.17 C 298.30 32.26 310.69 53.94 313.38 76.99 C 287.55 77.03 261.72 76.96 235.89 77.03 C 230.62 76.96 225.83 81.72 226.02 87.02 C 225.87 92.32 230.63 97.10 235.93 96.97 C 261.78 97.04 287.63 96.97 313.49 97.01 C 311.26 118.08 301.00 138.14 285.26 152.32 C 270.31 166.02 250.47 174.02 230.23 175.00 L 223.13 175.00 C 209.84 174.61 196.59 171.14 185.02 164.56 C 184.99 113.18 184.98 61.81 185.02 10.44 C 197.26 3.52 211.32 -0.02 225.37 0.00 Z" />
<path fill="#ffffff" opacity="1.00" d=" M 361.52 11.58 C 363.50 7.31 368.70 5.03 373.20 6.37 C 376.21 7.12 378.54 9.47 379.81 12.23 C 402.68 58.02 425.57 103.81 448.46 149.59 C 449.82 152.39 451.53 155.12 452.00 158.25 L 452.00 159.53 C 451.71 164.58 447.25 169.06 442.12 168.97 C 421.75 169.04 401.38 168.98 381.00 169.00 C 380.98 145.32 381.03 121.65 380.98 97.97 C 381.27 93.19 377.72 88.57 372.99 87.71 C 367.26 86.33 361.11 91.09 361.04 96.98 C 360.94 120.99 361.03 144.99 361.00 169.00 C 340.29 168.98 319.57 169.04 298.86 168.97 C 294.87 169.06 291.46 166.33 289.67 162.94 C 298.67 154.44 307.51 145.48 313.31 134.41 C 319.94 122.03 324.21 108.02 323.42 93.87 C 323.57 91.52 322.51 88.96 323.88 86.83 C 336.46 61.77 348.94 36.65 361.52 11.58 Z" />
</g>
</svg>
