<svg width="519px" height="175px" viewBox="0 0 519 175" xmlns="http://www.w3.org/2000/svg" fill="#fff">
  <path d=" M 23.31 0.00 L 170.42 0.00 C 181.33 0.60 192.02 8.76 193.20 20.03 C 193.57 39.38 193.01 58.76 193.42 78.11 C 191.37 79.57 192.97 82.27 193.75 84.03 C 193.35 81.36 193.59 78.68 194.15 76.06 C 196.44 55.23 207.15 35.62 222.86 21.85 C 237.55 8.66 256.88 1.20 276.52 0.00 L 285.05 0.00 C 303.56 1.22 321.78 7.91 336.09 19.81 C 347.72 29.25 356.76 41.79 362.25 55.71 C 366.36 63.74 359.97 74.53 350.88 74.42 C 326.60 74.49 302.32 74.40 278.04 74.47 C 270.96 74.43 264.73 81.01 265.22 88.09 C 265.34 94.78 271.31 100.60 277.98 100.65 C 302.33 100.73 326.68 100.64 351.03 100.70 C 357.56 100.75 363.31 106.59 363.46 113.08 C 363.35 115.06 362.87 116.98 362.40 118.89 C 381.45 81.73 400.08 44.34 419.00 7.10 C 421.08 2.87 425.60 0.34 430.21 0.00 L 430.78 0.00 C 435.68 0.09 440.45 2.85 442.61 7.32 C 466.82 55.19 491.00 103.09 515.20 150.97 C 516.79 154.23 518.93 157.45 519.00 161.20 L 519.00 162.77 C 518.55 168.88 513.56 174.11 507.53 175.00 L 455.56 175.00 C 449.17 174.29 443.75 168.50 443.85 162.01 C 443.81 136.98 443.89 111.96 443.82 86.94 C 443.68 80.24 437.64 74.40 430.95 74.45 C 424.10 74.20 417.76 80.16 417.67 87.02 C 417.61 112.01 417.67 137.00 417.64 161.98 C 417.79 168.37 412.58 173.98 406.39 175.00 L 354.44 175.00 C 346.20 174.36 340.08 165.01 343.24 157.27 C 346.74 149.44 351.18 142.07 354.75 134.28 C 346.74 146.57 335.97 157.11 323.04 164.14 C 311.58 170.56 298.64 174.10 285.55 175.00 L 275.67 175.00 C 256.79 173.75 238.29 166.52 223.95 154.11 C 210.21 142.43 200.20 126.41 195.86 108.90 C 194.48 103.65 194.31 98.19 193.39 92.86 C 193.12 116.22 193.46 139.64 193.24 163.02 C 192.50 169.69 186.24 174.66 179.72 175.00 L 158.13 175.00 C 151.80 174.05 146.36 168.39 146.43 161.87 C 146.38 134.94 146.44 108.01 146.40 81.08 C 146.33 74.14 139.89 68.14 132.98 68.44 C 126.34 68.51 120.38 74.27 120.24 80.94 C 120.16 107.97 120.26 135.00 120.19 162.03 C 120.12 168.47 114.79 174.06 108.51 175.00 L 85.39 175.00 C 78.86 174.44 73.15 168.61 73.20 161.98 C 73.17 135.31 73.18 108.64 73.19 81.98 C 73.41 75.52 68.37 69.42 61.94 68.59 C 54.57 67.29 47.11 73.49 46.95 80.95 C 46.80 108.00 46.96 135.05 46.88 162.10 C 46.90 168.49 41.54 173.95 35.40 175.00 L 12.78 175.00 C 6.58 174.21 1.11 169.51 0.00 163.26 L 0.00 20.67 C 1.05 9.02 11.98 0.38 23.31 0.00 Z" />
</svg>
