<?xml version="1.0" encoding="UTF-8" ?>
<!DOCTYPE svg PUBLIC "-//W3C//DTD SVG 1.1//EN" "http://www.w3.org/Graphics/SVG/1.1/DTD/svg11.dtd">
<svg width="160pt" height="160pt" viewBox="0 0 160 160" version="1.1" xmlns="http://www.w3.org/2000/svg">
<g id="#ffffffff">
<path fill="#ffffff" opacity="1.00" d=" M 77.26 0.00 L 81.67 0.00 C 85.04 1.21 88.20 4.08 87.95 7.95 C 88.13 29.27 87.86 50.60 88.07 71.92 C 109.40 72.15 130.73 71.87 152.06 72.06 C 155.67 71.75 158.09 74.66 160.00 77.27 L 160.00 82.72 C 158.09 85.33 155.68 88.27 152.06 87.94 C 130.73 88.13 109.40 87.86 88.07 88.07 C 87.86 109.40 88.13 130.73 87.95 152.05 C 88.24 155.65 85.34 158.10 82.73 160.00 L 77.27 160.00 C 74.67 158.08 71.75 155.66 72.05 152.05 C 71.88 130.73 72.15 109.40 71.93 88.07 C 50.60 87.84 29.27 88.14 7.95 87.95 C 4.34 88.24 1.91 85.34 0.00 82.73 L 0.00 77.28 C 1.90 74.65 4.32 71.75 7.95 72.06 C 29.27 71.86 50.61 72.15 71.93 71.92 C 72.14 50.60 71.87 29.27 72.05 7.95 C 71.75 4.35 74.66 1.91 77.26 0.00 Z" />
</g>
</svg>
