<?xml version="1.0" encoding="UTF-8" ?>
<!DOCTYPE svg PUBLIC "-//W3C//DTD SVG 1.1//EN" "http://www.w3.org/Graphics/SVG/1.1/DTD/svg11.dtd">
<svg width="160pt" height="160pt" viewBox="0 0 160 160" version="1.1" xmlns="http://www.w3.org/2000/svg">
<g id="#ffffffff">
<path fill="#ffffff" opacity="1.00" d=" M 39.11 5.18 C 57.57 -2.78 79.79 -1.44 97.05 8.94 C 113.18 18.34 124.78 35.09 127.77 53.52 C 130.90 71.11 126.20 89.93 115.09 103.93 C 128.08 116.58 140.76 129.55 153.62 142.32 C 155.98 144.90 159.24 147.01 160.00 150.66 L 160.00 152.93 C 159.51 156.65 156.30 159.72 152.55 160.00 L 151.56 160.00 C 149.36 159.81 147.33 158.83 145.88 157.16 C 131.92 143.12 117.81 129.24 103.95 115.10 C 92.41 124.17 77.69 129.08 63.02 128.70 C 44.29 128.42 25.94 119.39 14.26 104.76 C 4.91 93.29 -0.14 78.49 0.00 63.71 L 0.00 62.65 C 0.41 38.03 16.36 14.59 39.11 5.18 M 55.57 16.82 C 36.09 20.20 19.77 36.65 16.65 56.18 C 14.50 68.62 17.41 81.88 24.78 92.17 C 33.03 103.91 46.64 111.74 61.00 112.62 C 72.41 113.47 84.07 110.07 93.22 103.21 C 105.75 94.04 113.33 78.54 112.72 63.00 C 112.46 47.69 104.23 32.86 91.52 24.35 C 81.16 17.16 67.93 14.61 55.57 16.82 Z" />
</g>
</svg>
