<?xml version="1.0" encoding="UTF-8" ?>
<!DOCTYPE svg PUBLIC "-//W3C//DTD SVG 1.1//EN" "http://www.w3.org/Graphics/SVG/1.1/DTD/svg11.dtd">
<svg width="160pt" height="160pt" viewBox="0 0 160 160" version="1.1" xmlns="http://www.w3.org/2000/svg">
<g id="#ffffffff">
<path fill="#ffffff" opacity="1.00" d=" M 73.97 0.00 L 85.64 0.00 C 91.04 0.25 96.13 3.59 98.37 8.52 C 99.89 11.47 99.73 14.85 99.77 18.07 C 103.19 19.28 106.54 20.67 109.80 22.26 C 112.19 19.79 114.75 17.22 118.16 16.25 C 123.54 14.44 129.78 16.25 133.56 20.43 C 137.63 24.84 143.36 28.62 144.25 35.03 C 145.44 40.95 142.10 46.53 137.73 50.23 C 139.34 53.47 140.71 56.83 141.94 60.23 C 145.17 60.27 148.59 60.11 151.54 61.67 C 156.30 63.84 159.53 68.70 160.00 73.88 L 160.00 85.87 C 159.66 91.42 156.01 96.59 150.83 98.65 C 148.04 99.91 144.92 99.70 141.94 99.77 C 140.71 103.17 139.34 106.52 137.73 109.77 C 140.19 112.18 142.77 114.74 143.75 118.15 C 145.58 123.52 143.75 129.71 139.61 133.52 C 135.19 137.59 131.42 143.36 124.99 144.24 C 119.08 145.44 113.48 142.12 109.80 137.74 C 106.54 139.33 103.18 140.71 99.77 141.93 C 99.73 145.17 99.89 148.58 98.34 151.54 C 96.13 156.35 91.21 159.57 85.97 160.00 L 74.36 160.00 C 68.97 159.73 63.88 156.41 61.63 151.49 C 60.11 148.54 60.27 145.14 60.23 141.92 C 56.82 140.70 53.47 139.32 50.21 137.73 C 46.53 142.13 40.92 145.45 34.99 144.23 C 28.57 143.34 24.80 137.57 20.37 133.50 C 16.25 129.70 14.42 123.54 16.24 118.18 C 17.21 114.75 19.80 112.19 22.27 109.78 C 20.66 106.53 19.28 103.18 18.06 99.77 C 14.82 99.73 11.39 99.88 8.43 98.31 C 3.74 96.17 0.55 91.42 0.00 86.32 L 0.00 74.33 C 0.24 68.97 3.58 63.89 8.47 61.66 C 11.42 60.11 14.83 60.28 18.06 60.23 C 19.29 56.83 20.66 53.47 22.27 50.22 C 17.91 46.53 14.56 40.98 15.74 35.06 C 16.62 28.64 22.36 24.85 26.44 20.43 C 30.24 16.25 36.48 14.43 41.88 16.26 C 45.27 17.23 47.83 19.79 50.20 22.27 C 53.46 20.68 56.81 19.30 60.23 18.08 C 60.27 14.87 60.10 11.48 61.62 8.53 C 63.81 3.70 68.72 0.46 73.97 0.00 M 74.28 9.44 C 71.13 9.72 69.11 13.01 69.60 16.00 C 69.34 19.17 70.71 23.38 67.57 25.52 C 63.46 27.22 59.01 28.10 55.11 30.35 C 52.87 31.31 50.67 33.45 48.06 32.59 C 43.86 30.80 42.05 24.95 36.99 24.86 C 33.94 25.33 32.18 28.13 30.05 30.05 C 28.16 32.19 25.29 33.92 24.87 36.97 C 24.70 42.70 32.80 44.26 32.81 49.84 C 31.43 53.84 28.79 57.34 27.62 61.45 C 26.45 64.32 26.38 68.79 22.63 69.50 C 18.34 70.22 11.95 67.85 9.73 72.98 C 8.93 76.90 9.56 81.00 9.38 84.99 C 9.18 88.45 12.79 90.93 16.03 90.39 C 19.18 90.68 23.39 89.28 25.50 92.43 C 27.19 96.46 28.05 100.83 30.23 104.67 C 31.19 106.98 33.41 109.15 32.66 111.83 C 30.90 116.11 24.89 117.92 24.87 123.01 C 25.80 127.14 30.00 129.34 32.55 132.46 C 34.58 135.25 38.87 136.07 41.32 133.35 C 44.12 131.24 46.08 126.82 50.11 127.27 C 53.99 128.70 57.42 131.19 61.42 132.36 C 64.15 133.50 68.11 133.46 69.34 136.71 C 70.13 140.04 69.15 143.55 69.84 146.91 C 70.57 149.09 72.78 150.73 75.11 150.61 C 78.65 150.62 82.19 150.71 85.72 150.56 C 88.88 150.28 90.89 146.95 90.40 143.95 C 90.65 140.79 89.29 136.62 92.43 134.49 C 96.28 132.80 100.54 132.08 104.25 129.98 C 106.82 128.92 109.40 126.29 112.37 127.56 C 116.20 129.64 118.11 134.94 122.93 135.14 C 126.24 134.63 128.10 131.53 130.43 129.47 C 132.41 127.32 135.54 125.27 135.08 121.94 C 134.09 117.55 129.04 115.81 127.33 111.83 C 126.59 109.16 128.79 107.01 129.75 104.72 C 131.95 100.85 132.79 96.42 134.53 92.38 C 138.33 87.59 146.41 93.33 149.89 87.80 C 151.46 83.80 150.27 79.27 150.62 75.06 C 150.84 71.57 147.21 69.05 143.95 69.61 C 140.80 69.33 136.58 70.71 134.48 67.54 C 132.81 63.51 131.93 59.14 129.76 55.30 C 128.80 53.01 126.56 50.82 127.35 48.15 C 129.04 44.17 134.12 42.44 135.08 38.04 C 135.55 34.74 132.42 32.69 130.47 30.57 C 128.13 28.51 126.29 25.41 122.98 24.86 C 117.20 24.80 115.67 33.04 109.94 32.74 C 105.55 31.07 101.61 28.25 96.98 27.12 C 94.24 26.45 90.47 25.44 90.40 21.96 C 89.99 17.87 91.94 11.89 87.11 9.79 C 82.93 8.91 78.53 9.51 74.28 9.44 Z" />
<path fill="#ffffff" opacity="1.00" d=" M 73.53 45.78 C 90.51 42.19 108.78 53.42 113.37 70.11 C 118.42 85.92 110.17 104.37 95.16 111.33 C 85.52 116.08 73.66 115.94 64.12 110.97 C 56.58 107.09 50.52 100.39 47.49 92.45 C 43.77 82.87 44.60 71.63 49.78 62.74 C 54.75 54.01 63.64 47.62 73.53 45.78 M 72.46 55.71 C 59.92 59.30 51.81 73.54 55.31 86.14 C 58.29 99.36 73.01 108.36 86.12 104.68 C 99.67 101.69 108.68 86.33 104.47 73.05 C 101.02 59.70 85.56 51.19 72.46 55.71 Z" />
</g>
</svg>
